# xmcd CD database file
# Copyright (C) 1993-1996 Ti Kan
#
# Track frame offsets:
# 187
# 12995
# 29355
# 51340
# 71537
# 85975
# 101895
# 115455
# 135650
# 150990
#
# Disc length: 2253 seconds
#
# Revision: 0
# Processed by: cddbd v1.4b41PL1 Copyright (c) Steve Scherf et al.
# Submitted via: inCDius 1.1b5
#
DISCID=8308cb0a
DTITLE=John Schneider - You Ain't Seen The Last Of Me
DYEAR=1900
DGENRE=
TTITLE0=I Lost My Head Last Night
TTITLE1=So Good
TTITLE2=When The Right One Comes Along
TTITLE3=Angelena
TTITLE4=If It Was Anyone But You
TTITLE5=Hillbilly Boy With The Rock 'N' Roll Blues
TTITLE6=Credit
TTITLE7=The Gunfighter
TTITLE8=A Redneck Is The Backbone Of America
TTITLE9=Love, You Ain't Seen The Last Of Me
EXTD=
EXTT0=
EXTT1=
EXTT2=
EXTT3=
EXTT4=
EXTT5=
EXTT6=
EXTT7=
EXTT8=
EXTT9=
PLAYORDER=
